  0
SECTION
  2
HEADER
  9
$ACADVER
  1
AC1009
  9
$EXTMIN
 10
0.0
 20
0.0
 30
0.0
  9
$EXTMAX
 10
1000.0
 20
1000.0
 30
0.0
  9
$FILLMODE
 70
 0
  9
$SPLFRAME
 70
 1
  0
ENDSEC
  0
SECTION
  2
TABLES
  0
TABLE
  2
LAYER
 70
1
  0
LAYER
  2
0
 70
     0
 62
     7
  6
CONTINUOUS
  0
ENDTAB
  0
ENDSEC
  0
SECTION
  2
ENTITIES
  0
LINE
  8
0
 62
     154
 10
26.7588
 20
16.6026
 30
0.0
 11
6.69036
 21
16.6026
 31
0.0
  0
LINE
  8
0
 62
     154
 10
6.69036
 20
16.6026
 30
0.0
 11
6.06199
 21
16.6026
 31
0.0
  0
LINE
  8
0
 62
     154
 10
6.06199
 20
16.6026
 30
0.0
 11
4.18098
 21
17.1042
 31
0.0
  0
LINE
  8
0
 62
     154
 10
4.18098
 20
17.1042
 30
0.0
 11
2.34129
 21
18.2755
 31
0.0
  0
LINE
  8
0
 62
     154
 10
2.34129
 20
18.2755
 30
0.0
 11
2.00642
 21
18.6104
 31
0.0
  0
LINE
  8
0
 62
     154
 10
2.00642
 20
18.6104
 30
0.0
 11
1.67156
 21
18.9453
 31
0.0
  0
LINE
  8
0
 62
     154
 10
1.67156
 20
18.9453
 30
0.0
 11
0.500228
 21
20.785
 31
0.0
  0
LINE
  8
0
 62
     154
 10
0.500228
 20
20.785
 30
0.0
 11
0
 21
22.6701
 31
0.0
  0
LINE
  8
0
 62
     154
 10
0
 20
22.6701
 30
0.0
 11
0
 21
23.2971
 31
0.0
  0
LINE
  8
0
 62
     154
 10
0
 20
23.2971
 30
0.0
 11
0
 21
43.3846
 31
0.0
  0
LINE
  8
0
 62
     154
 10
0
 20
43.3846
 30
0.0
 11
10.0073
 21
43.3846
 31
0.0
  0
LINE
  8
0
 62
     154
 10
10.0073
 20
43.3846
 30
0.0
 11
10.0073
 21
23.3026
 31
0.0
  0
LINE
  8
0
 62
     154
 10
10.0073
 20
23.3026
 30
0.0
 11
10.0073
 21
22.9953
 31
0.0
  0
LINE
  8
0
 62
     154
 10
10.0073
 20
22.9953
 30
0.0
 11
10.2609
 21
22.0707
 31
0.0
  0
LINE
  8
0
 62
     154
 10
10.2609
 20
22.0707
 30
0.0
 11
10.8562
 21
21.1487
 31
0.0
  0
LINE
  8
0
 62
     154
 10
10.8562
 20
21.1487
 30
0.0
 11
11.0271
 21
20.9779
 31
0.0
  0
LINE
  8
0
 62
     154
 10
11.0271
 20
20.9779
 30
0.0
 11
11.1966
 21
20.8084
 31
0.0
  0
LINE
  8
0
 62
     154
 10
11.1966
 20
20.8084
 30
0.0
 11
12.1199
 21
20.2131
 31
0.0
  0
LINE
  8
0
 62
     154
 10
12.1199
 20
20.2131
 30
0.0
 11
13.0473
 21
19.9567
 31
0.0
  0
LINE
  8
0
 62
     154
 10
13.0473
 20
19.9567
 30
0.0
 11
13.3573
 21
19.9567
 31
0.0
  0
LINE
  8
0
 62
     154
 10
13.3573
 20
19.9567
 30
0.0
 11
26.7574
 21
19.9567
 31
0.0
  0
LINE
  8
0
 62
     154
 10
26.7574
 20
19.9567
 30
0.0
 11
26.7574
 21
16.6026
 31
0.0
  0
LINE
  8
0
 62
     154
 10
133.149
 20
23.2958
 30
0.0
 11
133.149
 21
22.6687
 31
0.0
  0
LINE
  8
0
 62
     154
 10
133.149
 20
22.6687
 30
0.0
 11
132.646
 21
20.785
 31
0.0
  0
LINE
  8
0
 62
     154
 10
132.646
 20
20.785
 30
0.0
 11
131.473
 21
18.9439
 31
0.0
  0
LINE
  8
0
 62
     154
 10
131.473
 20
18.9439
 30
0.0
 11
131.139
 21
18.609
 31
0.0
  0
LINE
  8
0
 62
     154
 10
131.139
 20
18.609
 30
0.0
 11
130.805
 21
18.2755
 31
0.0
  0
LINE
  8
0
 62
     154
 10
130.805
 20
18.2755
 30
0.0
 11
128.964
 21
17.1056
 31
0.0
  0
LINE
  8
0
 62
     154
 10
128.964
 20
17.1056
 30
0.0
 11
127.08
 21
16.6026
 31
0.0
  0
LINE
  8
0
 62
     154
 10
127.08
 20
16.6026
 30
0.0
 11
126.453
 21
16.6026
 31
0.0
  0
LINE
  8
0
 62
     154
 10
126.453
 20
16.6026
 30
0.0
 11
106.365
 21
16.6026
 31
0.0
  0
LINE
  8
0
 62
     154
 10
106.365
 20
16.6026
 30
0.0
 11
106.365
 21
19.9567
 31
0.0
  0
LINE
  8
0
 62
     154
 10
106.365
 20
19.9567
 30
0.0
 11
119.787
 21
19.9567
 31
0.0
  0
LINE
  8
0
 62
     154
 10
119.787
 20
19.9567
 30
0.0
 11
120.101
 21
19.9567
 31
0.0
  0
LINE
  8
0
 62
     154
 10
120.101
 20
19.9567
 30
0.0
 11
121.044
 21
20.2076
 31
0.0
  0
LINE
  8
0
 62
     154
 10
121.044
 20
20.2076
 30
0.0
 11
121.969
 21
20.7946
 31
0.0
  0
LINE
  8
0
 62
     154
 10
121.969
 20
20.7946
 30
0.0
 11
122.137
 21
20.9613
 31
0.0
  0
LINE
  8
0
 62
     154
 10
122.137
 20
20.9613
 30
0.0
 11
122.304
 21
21.1294
 31
0.0
  0
LINE
  8
0
 62
     154
 10
122.304
 20
21.1294
 30
0.0
 11
122.888
 21
22.0486
 31
0.0
  0
LINE
  8
0
 62
     154
 10
122.888
 20
22.0486
 30
0.0
 11
123.14
 21
22.9898
 31
0.0
  0
LINE
  8
0
 62
     154
 10
123.14
 20
22.9898
 30
0.0
 11
123.14
 21
23.3026
 31
0.0
  0
LINE
  8
0
 62
     154
 10
123.14
 20
23.3026
 30
0.0
 11
123.14
 21
23.53
 31
0.0
  0
LINE
  8
0
 62
     154
 10
123.14
 20
23.53
 30
0.0
 11
122.867
 21
24.2094
 31
0.0
  0
LINE
  8
0
 62
     154
 10
122.867
 20
24.2094
 30
0.0
 11
122.05
 21
25.0858
 31
0.0
  0
LINE
  8
0
 62
     154
 10
122.05
 20
25.0858
 30
0.0
 11
120.687
 21
25.9333
 31
0.0
  0
LINE
  8
0
 62
     154
 10
120.687
 20
25.9333
 30
0.0
 11
119.265
 21
26.5713
 31
0.0
  0
LINE
  8
0
 62
     154
 10
119.265
 20
26.5713
 30
0.0
 11
118.78
 21
26.7505
 31
0.0
  0
LINE
  8
0
 62
     154
 10
118.78
 20
26.7505
 30
0.0
 11
118.017
 21
27.033
 31
0.0
  0
LINE
  8
0
 62
     154
 10
118.017
 20
27.033
 30
0.0
 11
115.734
 21
27.8956
 31
0.0
  0
LINE
  8
0
 62
     154
 10
115.734
 20
27.8956
 30
0.0
 11
113.378
 21
28.8175
 31
0.0
  0
LINE
  8
0
 62
     154
 10
113.378
 20
28.8175
 30
0.0
 11
111.708
 21
29.519
 31
0.0
  0
LINE
  8
0
 62
     154
 10
111.708
 20
29.519
 30
0.0
 11
110.939
 21
29.8745
 31
0.0
  0
LINE
  8
0
 62
     154
 10
110.939
 20
29.8745
 30
0.0
 11
110.727
 21
29.9972
 31
0.0
  0
LINE
  8
0
 62
     154
 10
110.727
 20
29.9972
 30
0.0
 11
110.221
 21
30.292
 31
0.0
  0
LINE
  8
0
 62
     154
 10
110.221
 20
30.292
 30
0.0
 11
108.817
 21
31.3697
 31
0.0
  0
LINE
  8
0
 62
     154
 10
108.817
 20
31.3697
 30
0.0
 11
107.454
 21
32.942
 31
0.0
  0
LINE
  8
0
 62
     154
 10
107.454
 20
32.942
 30
0.0
 11
106.637
 21
34.7156
 31
0.0
  0
LINE
  8
0
 62
     154
 10
106.637
 20
34.7156
 30
0.0
 11
106.365
 21
36.1957
 31
0.0
  0
LINE
  8
0
 62
     154
 10
106.365
 20
36.1957
 30
0.0
 11
106.365
 21
36.6889
 31
0.0
  0
LINE
  8
0
 62
     154
 10
106.365
 20
36.6889
 30
0.0
 11
106.365
 21
37.3172
 31
0.0
  0
LINE
  8
0
 62
     154
 10
106.365
 20
37.3172
 30
0.0
 11
106.867
 21
39.1996
 31
0.0
  0
LINE
  8
0
 62
     154
 10
106.867
 20
39.1996
 30
0.0
 11
108.038
 21
41.0408
 31
0.0
  0
LINE
  8
0
 62
     154
 10
108.038
 20
41.0408
 30
0.0
 11
108.373
 21
41.3741
 31
0.0
  0
LINE
  8
0
 62
     154
 10
108.373
 20
41.3741
 30
0.0
 11
108.707
 21
41.7089
 31
0.0
  0
LINE
  8
0
 62
     154
 10
108.707
 20
41.7089
 30
0.0
 11
110.548
 21
42.8819
 31
0.0
  0
LINE
  8
0
 62
     154
 10
110.548
 20
42.8819
 30
0.0
 11
112.431
 21
43.3836
 31
0.0
  0
LINE
  8
0
 62
     154
 10
112.431
 20
43.3836
 30
0.0
 11
113.06
 21
43.3836
 31
0.0
  0
LINE
  8
0
 62
     154
 10
113.06
 20
43.3836
 30
0.0
 11
133.149
 21
43.3836
 31
0.0
  0
LINE
  8
0
 62
     154
 10
133.149
 20
43.3836
 30
0.0
 11
133.149
 21
40.0279
 31
0.0
  0
LINE
  8
0
 62
     154
 10
133.149
 20
40.0279
 30
0.0
 11
119.727
 21
40.0279
 31
0.0
  0
LINE
  8
0
 62
     154
 10
119.727
 20
40.0279
 30
0.0
 11
119.411
 21
40.0279
 31
0.0
  0
LINE
  8
0
 62
     154
 10
119.411
 20
40.0279
 30
0.0
 11
118.467
 21
39.7771
 31
0.0
  0
LINE
  8
0
 62
     154
 10
118.467
 20
39.7771
 30
0.0
 11
117.544
 21
39.1915
 31
0.0
  0
LINE
  8
0
 62
     154
 10
117.544
 20
39.1915
 30
0.0
 11
117.377
 21
39.0232
 31
0.0
  0
LINE
  8
0
 62
     154
 10
117.377
 20
39.0232
 30
0.0
 11
117.209
 21
38.8567
 31
0.0
  0
LINE
  8
0
 62
     154
 10
117.209
 20
38.8567
 30
0.0
 11
116.621
 21
37.936
 31
0.0
  0
LINE
  8
0
 62
     154
 10
116.621
 20
37.936
 30
0.0
 11
116.37
 21
36.9947
 31
0.0
  0
LINE
  8
0
 62
     154
 10
116.37
 20
36.9947
 30
0.0
 11
116.37
 21
36.6808
 31
0.0
  0
LINE
  8
0
 62
     154
 10
116.37
 20
36.6808
 30
0.0
 11
116.37
 21
36.4546
 31
0.0
  0
LINE
  8
0
 62
     154
 10
116.37
 20
36.4546
 30
0.0
 11
116.641
 21
35.7752
 31
0.0
  0
LINE
  8
0
 62
     154
 10
116.641
 20
35.7752
 30
0.0
 11
117.46
 21
34.8988
 31
0.0
  0
LINE
  8
0
 62
     154
 10
117.46
 20
34.8988
 30
0.0
 11
118.823
 21
34.0527
 31
0.0
  0
LINE
  8
0
 62
     154
 10
118.823
 20
34.0527
 30
0.0
 11
120.245
 21
33.4133
 31
0.0
  0
LINE
  8
0
 62
     154
 10
120.245
 20
33.4133
 30
0.0
 11
120.733
 21
33.2341
 31
0.0
  0
LINE
  8
0
 62
     154
 10
120.733
 20
33.2341
 30
0.0
 11
121.495
 21
32.9517
 31
0.0
  0
LINE
  8
0
 62
     154
 10
121.495
 20
32.9517
 30
0.0
 11
123.777
 21
32.089
 31
0.0
  0
LINE
  8
0
 62
     154
 10
123.777
 20
32.089
 30
0.0
 11
126.135
 21
31.1671
 31
0.0
  0
LINE
  8
0
 62
     154
 10
126.135
 20
31.1671
 30
0.0
 11
127.803
 21
30.4657
 31
0.0
  0
LINE
  8
0
 62
     154
 10
127.803
 20
30.4657
 30
0.0
 11
128.572
 21
30.1101
 31
0.0
  0
LINE
  8
0
 62
     154
 10
128.572
 20
30.1101
 30
0.0
 11
128.786
 21
29.9861
 31
0.0
  0
LINE
  8
0
 62
     154
 10
128.786
 20
29.9861
 30
0.0
 11
129.29
 21
29.6926
 31
0.0
  0
LINE
  8
0
 62
     154
 10
129.29
 20
29.6926
 30
0.0
 11
130.693
 21
28.615
 31
0.0
  0
LINE
  8
0
 62
     154
 10
130.693
 20
28.615
 30
0.0
 11
132.057
 21
27.0426
 31
0.0
  0
LINE
  8
0
 62
     154
 10
132.057
 20
27.0426
 30
0.0
 11
132.876
 21
25.2691
 31
0.0
  0
LINE
  8
0
 62
     154
 10
132.876
 20
25.2691
 30
0.0
 11
133.149
 21
23.7891
 31
0.0
  0
LINE
  8
0
 62
     154
 10
133.149
 20
23.7891
 30
0.0
 11
133.149
 21
23.2944
 31
0.0
  0
LINE
  8
0
 62
     20
 10
33.5704
 20
1.79834
 30
0.0
 11
33.5704
 21
1.97335
 31
0.0
  0
LINE
  8
0
 62
     20
 10
33.5704
 20
1.97335
 30
0.0
 11
33.711
 21
2.49838
 31
0.0
  0
LINE
  8
0
 62
     20
 10
33.711
 20
2.49838
 30
0.0
 11
34.0954
 21
3.06889
 31
0.0
  0
LINE
  8
0
 62
     20
 10
34.0954
 20
3.06889
 30
0.0
 11
34.6659
 21
3.45474
 31
0.0
  0
LINE
  8
0
 62
     20
 10
34.6659
 20
3.45474
 30
0.0
 11
35.191
 21
3.5953
 31
0.0
  0
LINE
  8
0
 62
     20
 10
35.191
 20
3.5953
 30
0.0
 11
35.366
 21
3.5953
 31
0.0
  0
LINE
  8
0
 62
     20
 10
35.366
 20
3.5953
 30
0.0
 11
42.3224
 21
3.5953
 31
0.0
  0
LINE
  8
0
 62
     20
 10
42.3224
 20
3.5953
 30
0.0
 11
42.496
 21
3.5953
 31
0.0
  0
LINE
  8
0
 62
     20
 10
42.496
 20
3.5953
 30
0.0
 11
43.0209
 21
3.45474
 31
0.0
  0
LINE
  8
0
 62
     20
 10
43.0209
 20
3.45474
 30
0.0
 11
43.5928
 21
3.06889
 31
0.0
  0
LINE
  8
0
 62
     20
 10
43.5928
 20
3.06889
 30
0.0
 11
43.9773
 21
2.49838
 31
0.0
  0
LINE
  8
0
 62
     20
 10
43.9773
 20
2.49838
 30
0.0
 11
44.1194
 21
1.97335
 31
0.0
  0
LINE
  8
0
 62
     20
 10
44.1194
 20
1.97335
 30
0.0
 11
44.1194
 21
1.79834
 31
0.0
  0
LINE
  8
0
 62
     20
 10
44.1194
 20
1.79834
 30
0.0
 11
44.1194
 21
1.62333
 31
0.0
  0
LINE
  8
0
 62
     20
 10
44.1194
 20
1.62333
 30
0.0
 11
43.9773
 21
1.0983
 31
0.0
  0
LINE
  8
0
 62
     20
 10
43.9773
 20
1.0983
 30
0.0
 11
43.5928
 21
0.527787
 31
0.0
  0
LINE
  8
0
 62
     20
 10
43.5928
 20
0.527787
 30
0.0
 11
43.0209
 21
0.141938
 31
0.0
  0
LINE
  8
0
 62
     20
 10
43.0209
 20
0.141938
 30
0.0
 11
42.496
 21
0
 31
0.0
  0
LINE
  8
0
 62
     20
 10
42.496
 20
0
 30
0.0
 11
42.3224
 21
0
 31
0.0
  0
LINE
  8
0
 62
     20
 10
42.3224
 20
0
 30
0.0
 11
35.366
 21
0
 31
0.0
  0
LINE
  8
0
 62
     20
 10
35.366
 20
0
 30
0.0
 11
35.191
 21
0
 31
0.0
  0
LINE
  8
0
 62
     20
 10
35.191
 20
0
 30
0.0
 11
34.6673
 21
0.141938
 31
0.0
  0
LINE
  8
0
 62
     20
 10
34.6673
 20
0.141938
 30
0.0
 11
34.0954
 21
0.527787
 31
0.0
  0
LINE
  8
0
 62
     20
 10
34.0954
 20
0.527787
 30
0.0
 11
33.711
 21
1.0983
 31
0.0
  0
LINE
  8
0
 62
     20
 10
33.711
 20
1.0983
 30
0.0
 11
33.5704
 21
1.62333
 31
0.0
  0
LINE
  8
0
 62
     20
 10
33.5704
 20
1.62333
 30
0.0
 11
33.5704
 21
1.79834
 31
0.0
  0
LINE
  8
0
 62
     173
 10
33.5704
 20
7.32839
 30
0.0
 11
33.5704
 21
7.50478
 31
0.0
  0
LINE
  8
0
 62
     173
 10
33.5704
 20
7.50478
 30
0.0
 11
33.711
 21
8.02982
 31
0.0
  0
LINE
  8
0
 62
     173
 10
33.711
 20
8.02982
 30
0.0
 11
34.0954
 21
8.60033
 31
0.0
  0
LINE
  8
0
 62
     173
 10
34.0954
 20
8.60033
 30
0.0
 11
34.6659
 21
8.9862
 31
0.0
  0
LINE
  8
0
 62
     173
 10
34.6659
 20
8.9862
 30
0.0
 11
35.191
 21
9.12675
 31
0.0
  0
LINE
  8
0
 62
     173
 10
35.191
 20
9.12675
 30
0.0
 11
35.366
 21
9.12675
 31
0.0
  0
LINE
  8
0
 62
     173
 10
35.366
 20
9.12675
 30
0.0
 11
42.3224
 21
9.12675
 31
0.0
  0
LINE
  8
0
 62
     173
 10
42.3224
 20
9.12675
 30
0.0
 11
42.496
 21
9.12675
 31
0.0
  0
LINE
  8
0
 62
     173
 10
42.496
 20
9.12675
 30
0.0
 11
43.0209
 21
8.9862
 31
0.0
  0
LINE
  8
0
 62
     173
 10
43.0209
 20
8.9862
 30
0.0
 11
43.5928
 21
8.60033
 31
0.0
  0
LINE
  8
0
 62
     173
 10
43.5928
 20
8.60033
 30
0.0
 11
43.9773
 21
8.02982
 31
0.0
  0
LINE
  8
0
 62
     173
 10
43.9773
 20
8.02982
 30
0.0
 11
44.1194
 21
7.50478
 31
0.0
  0
LINE
  8
0
 62
     173
 10
44.1194
 20
7.50478
 30
0.0
 11
44.1194
 21
7.32839
 31
0.0
  0
LINE
  8
0
 62
     173
 10
44.1194
 20
7.32839
 30
0.0
 11
44.1194
 21
7.15479
 31
0.0
  0
LINE
  8
0
 62
     173
 10
44.1194
 20
7.15479
 30
0.0
 11
43.9773
 21
6.62975
 31
0.0
  0
LINE
  8
0
 62
     173
 10
43.9773
 20
6.62975
 30
0.0
 11
43.5928
 21
6.05786
 31
0.0
  0
LINE
  8
0
 62
     173
 10
43.5928
 20
6.05786
 30
0.0
 11
43.0209
 21
5.67337
 31
0.0
  0
LINE
  8
0
 62
     173
 10
43.0209
 20
5.67337
 30
0.0
 11
42.496
 21
5.53145
 31
0.0
  0
LINE
  8
0
 62
     173
 10
42.496
 20
5.53145
 30
0.0
 11
42.3224
 21
5.53145
 31
0.0
  0
LINE
  8
0
 62
     173
 10
42.3224
 20
5.53145
 30
0.0
 11
35.366
 21
5.53145
 31
0.0
  0
LINE
  8
0
 62
     173
 10
35.366
 20
5.53145
 30
0.0
 11
35.191
 21
5.53145
 31
0.0
  0
LINE
  8
0
 62
     173
 10
35.191
 20
5.53145
 30
0.0
 11
34.6673
 21
5.67337
 31
0.0
  0
LINE
  8
0
 62
     173
 10
34.6673
 20
5.67337
 30
0.0
 11
34.0954
 21
6.05786
 31
0.0
  0
LINE
  8
0
 62
     173
 10
34.0954
 20
6.05786
 30
0.0
 11
33.711
 21
6.62975
 31
0.0
  0
LINE
  8
0
 62
     173
 10
33.711
 20
6.62975
 30
0.0
 11
33.5704
 21
7.15479
 31
0.0
  0
LINE
  8
0
 62
     173
 10
33.5704
 20
7.15479
 30
0.0
 11
33.5704
 21
7.32839
 31
0.0
  0
LINE
  8
0
 62
     153
 10
33.5704
 20
12.8598
 30
0.0
 11
33.5704
 21
13.0362
 31
0.0
  0
LINE
  8
0
 62
     153
 10
33.5704
 20
13.0362
 30
0.0
 11
33.711
 21
13.5613
 31
0.0
  0
LINE
  8
0
 62
     153
 10
33.711
 20
13.5613
 30
0.0
 11
34.0954
 21
14.1318
 31
0.0
  0
LINE
  8
0
 62
     153
 10
34.0954
 20
14.1318
 30
0.0
 11
34.6659
 21
14.5176
 31
0.0
  0
LINE
  8
0
 62
     153
 10
34.6659
 20
14.5176
 30
0.0
 11
35.191
 21
14.6582
 31
0.0
  0
LINE
  8
0
 62
     153
 10
35.191
 20
14.6582
 30
0.0
 11
35.366
 21
14.6582
 31
0.0
  0
LINE
  8
0
 62
     153
 10
35.366
 20
14.6582
 30
0.0
 11
42.3224
 21
14.6582
 31
0.0
  0
LINE
  8
0
 62
     153
 10
42.3224
 20
14.6582
 30
0.0
 11
42.496
 21
14.6582
 31
0.0
  0
LINE
  8
0
 62
     153
 10
42.496
 20
14.6582
 30
0.0
 11
43.0209
 21
14.5176
 31
0.0
  0
LINE
  8
0
 62
     153
 10
43.0209
 20
14.5176
 30
0.0
 11
43.5928
 21
14.1318
 31
0.0
  0
LINE
  8
0
 62
     153
 10
43.5928
 20
14.1318
 30
0.0
 11
43.9773
 21
13.5613
 31
0.0
  0
LINE
  8
0
 62
     153
 10
43.9773
 20
13.5613
 30
0.0
 11
44.1194
 21
13.0362
 31
0.0
  0
LINE
  8
0
 62
     153
 10
44.1194
 20
13.0362
 30
0.0
 11
44.1194
 21
12.8598
 31
0.0
  0
LINE
  8
0
 62
     153
 10
44.1194
 20
12.8598
 30
0.0
 11
44.1194
 21
12.6862
 31
0.0
  0
LINE
  8
0
 62
     153
 10
44.1194
 20
12.6862
 30
0.0
 11
43.9773
 21
12.1612
 31
0.0
  0
LINE
  8
0
 62
     153
 10
43.9773
 20
12.1612
 30
0.0
 11
43.5928
 21
11.5893
 31
0.0
  0
LINE
  8
0
 62
     153
 10
43.5928
 20
11.5893
 30
0.0
 11
43.0209
 21
11.2048
 31
0.0
  0
LINE
  8
0
 62
     153
 10
43.0209
 20
11.2048
 30
0.0
 11
42.496
 21
11.0629
 31
0.0
  0
LINE
  8
0
 62
     153
 10
42.496
 20
11.0629
 30
0.0
 11
42.3224
 21
11.0629
 31
0.0
  0
LINE
  8
0
 62
     153
 10
42.3224
 20
11.0629
 30
0.0
 11
35.366
 21
11.0629
 31
0.0
  0
LINE
  8
0
 62
     153
 10
35.366
 20
11.0629
 30
0.0
 11
35.191
 21
11.0629
 31
0.0
  0
LINE
  8
0
 62
     153
 10
35.191
 20
11.0629
 30
0.0
 11
34.6673
 21
11.2048
 31
0.0
  0
LINE
  8
0
 62
     153
 10
34.6673
 20
11.2048
 30
0.0
 11
34.0954
 21
11.5893
 31
0.0
  0
LINE
  8
0
 62
     153
 10
34.0954
 20
11.5893
 30
0.0
 11
33.711
 21
12.1612
 31
0.0
  0
LINE
  8
0
 62
     153
 10
33.711
 20
12.1612
 30
0.0
 11
33.5704
 21
12.6862
 31
0.0
  0
LINE
  8
0
 62
     153
 10
33.5704
 20
12.6862
 30
0.0
 11
33.5704
 21
12.8598
 31
0.0
  0
LINE
  8
0
 62
     254
 10
33.5704
 20
18.3899
 30
0.0
 11
33.5704
 21
18.5663
 31
0.0
  0
LINE
  8
0
 62
     254
 10
33.5704
 20
18.5663
 30
0.0
 11
33.711
 21
19.0913
 31
0.0
  0
LINE
  8
0
 62
     254
 10
33.711
 20
19.0913
 30
0.0
 11
34.0954
 21
19.6619
 31
0.0
  0
LINE
  8
0
 62
     254
 10
34.0954
 20
19.6619
 30
0.0
 11
34.6659
 21
20.0477
 31
0.0
  0
LINE
  8
0
 62
     254
 10
34.6659
 20
20.0477
 30
0.0
 11
35.191
 21
20.1883
 31
0.0
  0
LINE
  8
0
 62
     254
 10
35.191
 20
20.1883
 30
0.0
 11
35.366
 21
20.1883
 31
0.0
  0
LINE
  8
0
 62
     254
 10
35.366
 20
20.1883
 30
0.0
 11
42.3224
 21
20.1883
 31
0.0
  0
LINE
  8
0
 62
     254
 10
42.3224
 20
20.1883
 30
0.0
 11
42.496
 21
20.1883
 31
0.0
  0
LINE
  8
0
 62
     254
 10
42.496
 20
20.1883
 30
0.0
 11
43.0209
 21
20.0477
 31
0.0
  0
LINE
  8
0
 62
     254
 10
43.0209
 20
20.0477
 30
0.0
 11
43.5928
 21
19.6619
 31
0.0
  0
LINE
  8
0
 62
     254
 10
43.5928
 20
19.6619
 30
0.0
 11
43.9773
 21
19.09
 31
0.0
  0
LINE
  8
0
 62
     254
 10
43.9773
 20
19.09
 30
0.0
 11
44.1194
 21
18.5649
 31
0.0
  0
LINE
  8
0
 62
     254
 10
44.1194
 20
18.5649
 30
0.0
 11
44.1194
 21
18.3899
 31
0.0
  0
LINE
  8
0
 62
     254
 10
44.1194
 20
18.3899
 30
0.0
 11
44.1194
 21
18.2163
 31
0.0
  0
LINE
  8
0
 62
     254
 10
44.1194
 20
18.2163
 30
0.0
 11
43.9773
 21
17.6912
 31
0.0
  0
LINE
  8
0
 62
     254
 10
43.9773
 20
17.6912
 30
0.0
 11
43.5928
 21
17.1194
 31
0.0
  0
LINE
  8
0
 62
     254
 10
43.5928
 20
17.1194
 30
0.0
 11
43.0209
 21
16.7349
 31
0.0
  0
LINE
  8
0
 62
     254
 10
43.0209
 20
16.7349
 30
0.0
 11
42.496
 21
16.593
 31
0.0
  0
LINE
  8
0
 62
     254
 10
42.496
 20
16.593
 30
0.0
 11
42.3224
 21
16.593
 31
0.0
  0
LINE
  8
0
 62
     254
 10
42.3224
 20
16.593
 30
0.0
 11
35.366
 21
16.593
 31
0.0
  0
LINE
  8
0
 62
     254
 10
35.366
 20
16.593
 30
0.0
 11
35.191
 21
16.593
 31
0.0
  0
LINE
  8
0
 62
     254
 10
35.191
 20
16.593
 30
0.0
 11
34.6673
 21
16.7349
 31
0.0
  0
LINE
  8
0
 62
     254
 10
34.6673
 20
16.7349
 30
0.0
 11
34.0954
 21
17.1208
 31
0.0
  0
LINE
  8
0
 62
     254
 10
34.0954
 20
17.1208
 30
0.0
 11
33.711
 21
17.6912
 31
0.0
  0
LINE
  8
0
 62
     254
 10
33.711
 20
17.6912
 30
0.0
 11
33.5704
 21
18.2163
 31
0.0
  0
LINE
  8
0
 62
     254
 10
33.5704
 20
18.2163
 30
0.0
 11
33.5704
 21
18.3899
 31
0.0
  0
LINE
  8
0
 62
     154
 10
33.8143
 20
43.3917
 30
0.0
 11
43.8189
 21
43.3917
 31
0.0
  0
LINE
  8
0
 62
     154
 10
43.8189
 20
43.3917
 30
0.0
 11
43.8189
 21
23.4597
 31
0.0
  0
LINE
  8
0
 62
     154
 10
43.8189
 20
23.4597
 30
0.0
 11
33.8143
 21
23.4597
 31
0.0
  0
LINE
  8
0
 62
     154
 10
33.8143
 20
23.4597
 30
0.0
 11
33.8143
 21
43.3917
 31
0.0
  0
LINE
  8
0
 62
     20
 10
99.5772
 20
58.1932
 30
0.0
 11
99.5772
 21
58.0196
 31
0.0
  0
LINE
  8
0
 62
     20
 10
99.5772
 20
58.0196
 30
0.0
 11
99.435
 21
57.4947
 31
0.0
  0
LINE
  8
0
 62
     20
 10
99.435
 20
57.4947
 30
0.0
 11
99.0505
 21
56.9239
 31
0.0
  0
LINE
  8
0
 62
     20
 10
99.0505
 20
56.9239
 30
0.0
 11
98.48
 21
56.5397
 31
0.0
  0
LINE
  8
0
 62
     20
 10
98.48
 20
56.5397
 30
0.0
 11
97.9551
 21
56.3975
 31
0.0
  0
LINE
  8
0
 62
     20
 10
97.9551
 20
56.3975
 30
0.0
 11
97.7815
 21
56.3975
 31
0.0
  0
LINE
  8
0
 62
     20
 10
97.7815
 20
56.3975
 30
0.0
 11
90.8265
 21
56.3975
 31
0.0
  0
LINE
  8
0
 62
     20
 10
90.8265
 20
56.3975
 30
0.0
 11
90.6515
 21
56.3975
 31
0.0
  0
LINE
  8
0
 62
     20
 10
90.6515
 20
56.3975
 30
0.0
 11
90.1266
 21
56.5397
 31
0.0
  0
LINE
  8
0
 62
     20
 10
90.1266
 20
56.5397
 30
0.0
 11
89.5544
 21
56.9239
 31
0.0
  0
LINE
  8
0
 62
     20
 10
89.5544
 20
56.9239
 30
0.0
 11
89.1688
 21
57.4947
 31
0.0
  0
LINE
  8
0
 62
     20
 10
89.1688
 20
57.4947
 30
0.0
 11
89.0281
 21
58.0196
 31
0.0
  0
LINE
  8
0
 62
     20
 10
89.0281
 20
58.0196
 30
0.0
 11
89.0281
 21
58.1932
 31
0.0
  0
LINE
  8
0
 62
     20
 10
89.0281
 20
58.1932
 30
0.0
 11
89.0281
 21
58.3696
 31
0.0
  0
LINE
  8
0
 62
     20
 10
89.0281
 20
58.3696
 30
0.0
 11
89.1688
 21
58.8945
 31
0.0
  0
LINE
  8
0
 62
     20
 10
89.1688
 20
58.8945
 30
0.0
 11
89.5544
 21
59.4653
 31
0.0
  0
LINE
  8
0
 62
     20
 10
89.5544
 20
59.4653
 30
0.0
 11
90.1266
 21
59.8509
 31
0.0
  0
LINE
  8
0
 62
     20
 10
90.1266
 20
59.8509
 30
0.0
 11
90.6515
 21
59.9916
 31
0.0
  0
LINE
  8
0
 62
     20
 10
90.6515
 20
59.9916
 30
0.0
 11
90.8265
 21
59.9916
 31
0.0
  0
LINE
  8
0
 62
     20
 10
90.8265
 20
59.9916
 30
0.0
 11
97.7815
 21
59.9916
 31
0.0
  0
LINE
  8
0
 62
     20
 10
97.7815
 20
59.9916
 30
0.0
 11
97.9551
 21
59.9916
 31
0.0
  0
LINE
  8
0
 62
     20
 10
97.9551
 20
59.9916
 30
0.0
 11
98.48
 21
59.8509
 31
0.0
  0
LINE
  8
0
 62
     20
 10
98.48
 20
59.8509
 30
0.0
 11
99.0505
 21
59.4653
 31
0.0
  0
LINE
  8
0
 62
     20
 10
99.0505
 20
59.4653
 30
0.0
 11
99.435
 21
58.8945
 31
0.0
  0
LINE
  8
0
 62
     20
 10
99.435
 20
58.8945
 30
0.0
 11
99.5772
 21
58.3696
 31
0.0
  0
LINE
  8
0
 62
     20
 10
99.5772
 20
58.3696
 30
0.0
 11
99.5772
 21
58.1932
 31
0.0
  0
LINE
  8
0
 62
     173
 10
99.5772
 20
52.663
 30
0.0
 11
99.5772
 21
52.488
 31
0.0
  0
LINE
  8
0
 62
     173
 10
99.5772
 20
52.488
 30
0.0
 11
99.435
 21
51.9631
 31
0.0
  0
LINE
  8
0
 62
     173
 10
99.435
 20
51.9631
 30
0.0
 11
99.0505
 21
51.3927
 31
0.0
  0
LINE
  8
0
 62
     173
 10
99.0505
 20
51.3927
 30
0.0
 11
98.48
 21
51.0067
 31
0.0
  0
LINE
  8
0
 62
     173
 10
98.48
 20
51.0067
 30
0.0
 11
97.9551
 21
50.8649
 31
0.0
  0
LINE
  8
0
 62
     173
 10
97.9551
 20
50.8649
 30
0.0
 11
97.7815
 21
50.8649
 31
0.0
  0
LINE
  8
0
 62
     173
 10
97.7815
 20
50.8649
 30
0.0
 11
90.8265
 21
50.8649
 31
0.0
  0
LINE
  8
0
 62
     173
 10
90.8265
 20
50.8649
 30
0.0
 11
90.6515
 21
50.8649
 31
0.0
  0
LINE
  8
0
 62
     173
 10
90.6515
 20
50.8649
 30
0.0
 11
90.1266
 21
51.0067
 31
0.0
  0
LINE
  8
0
 62
     173
 10
90.1266
 20
51.0067
 30
0.0
 11
89.5544
 21
51.3927
 31
0.0
  0
LINE
  8
0
 62
     173
 10
89.5544
 20
51.3927
 30
0.0
 11
89.1688
 21
51.9631
 31
0.0
  0
LINE
  8
0
 62
     173
 10
89.1688
 20
51.9631
 30
0.0
 11
89.0281
 21
52.488
 31
0.0
  0
LINE
  8
0
 62
     173
 10
89.0281
 20
52.488
 30
0.0
 11
89.0281
 21
52.663
 31
0.0
  0
LINE
  8
0
 62
     173
 10
89.0281
 20
52.663
 30
0.0
 11
89.0281
 21
52.838
 31
0.0
  0
LINE
  8
0
 62
     173
 10
89.0281
 20
52.838
 30
0.0
 11
89.1688
 21
53.3633
 31
0.0
  0
LINE
  8
0
 62
     173
 10
89.1688
 20
53.3633
 30
0.0
 11
89.5544
 21
53.9337
 31
0.0
  0
LINE
  8
0
 62
     173
 10
89.5544
 20
53.9337
 30
0.0
 11
90.1266
 21
54.3183
 31
0.0
  0
LINE
  8
0
 62
     173
 10
90.1266
 20
54.3183
 30
0.0
 11
90.6515
 21
54.4587
 31
0.0
  0
LINE
  8
0
 62
     173
 10
90.6515
 20
54.4587
 30
0.0
 11
90.8265
 21
54.4587
 31
0.0
  0
LINE
  8
0
 62
     173
 10
90.8265
 20
54.4587
 30
0.0
 11
97.7815
 21
54.4587
 31
0.0
  0
LINE
  8
0
 62
     173
 10
97.7815
 20
54.4587
 30
0.0
 11
97.9551
 21
54.4587
 31
0.0
  0
LINE
  8
0
 62
     173
 10
97.9551
 20
54.4587
 30
0.0
 11
98.48
 21
54.3183
 31
0.0
  0
LINE
  8
0
 62
     173
 10
98.48
 20
54.3183
 30
0.0
 11
99.0505
 21
53.9337
 31
0.0
  0
LINE
  8
0
 62
     173
 10
99.0505
 20
53.9337
 30
0.0
 11
99.435
 21
53.3633
 31
0.0
  0
LINE
  8
0
 62
     173
 10
99.435
 20
53.3633
 30
0.0
 11
99.5772
 21
52.838
 31
0.0
  0
LINE
  8
0
 62
     173
 10
99.5772
 20
52.838
 30
0.0
 11
99.5772
 21
52.663
 31
0.0
  0
LINE
  8
0
 62
     153
 10
99.5772
 20
47.1304
 30
0.0
 11
99.5772
 21
46.9565
 31
0.0
  0
LINE
  8
0
 62
     153
 10
99.5772
 20
46.9565
 30
0.0
 11
99.435
 21
46.433
 31
0.0
  0
LINE
  8
0
 62
     153
 10
99.435
 20
46.433
 30
0.0
 11
99.0505
 21
45.8611
 31
0.0
  0
LINE
  8
0
 62
     153
 10
99.0505
 20
45.8611
 30
0.0
 11
98.48
 21
45.4766
 31
0.0
  0
LINE
  8
0
 62
     153
 10
98.48
 20
45.4766
 30
0.0
 11
97.9551
 21
45.3348
 31
0.0
  0
LINE
  8
0
 62
     153
 10
97.9551
 20
45.3348
 30
0.0
 11
97.7815
 21
45.3348
 31
0.0
  0
LINE
  8
0
 62
     153
 10
97.7815
 20
45.3348
 30
0.0
 11
90.8265
 21
45.3348
 31
0.0
  0
LINE
  8
0
 62
     153
 10
90.8265
 20
45.3348
 30
0.0
 11
90.6515
 21
45.3348
 31
0.0
  0
LINE
  8
0
 62
     153
 10
90.6515
 20
45.3348
 30
0.0
 11
90.1266
 21
45.4766
 31
0.0
  0
LINE
  8
0
 62
     153
 10
90.1266
 20
45.4766
 30
0.0
 11
89.5544
 21
45.8611
 31
0.0
  0
LINE
  8
0
 62
     153
 10
89.5544
 20
45.8611
 30
0.0
 11
89.1688
 21
46.433
 31
0.0
  0
LINE
  8
0
 62
     153
 10
89.1688
 20
46.433
 30
0.0
 11
89.0281
 21
46.9565
 31
0.0
  0
LINE
  8
0
 62
     153
 10
89.0281
 20
46.9565
 30
0.0
 11
89.0281
 21
47.1304
 31
0.0
  0
LINE
  8
0
 62
     153
 10
89.0281
 20
47.1304
 30
0.0
 11
89.0281
 21
47.3068
 31
0.0
  0
LINE
  8
0
 62
     153
 10
89.0281
 20
47.3068
 30
0.0
 11
89.1688
 21
47.8317
 31
0.0
  0
LINE
  8
0
 62
     153
 10
89.1688
 20
47.8317
 30
0.0
 11
89.5544
 21
48.4022
 31
0.0
  0
LINE
  8
0
 62
     153
 10
89.5544
 20
48.4022
 30
0.0
 11
90.1266
 21
48.7881
 31
0.0
  0
LINE
  8
0
 62
     153
 10
90.1266
 20
48.7881
 30
0.0
 11
90.6515
 21
48.9285
 31
0.0
  0
LINE
  8
0
 62
     153
 10
90.6515
 20
48.9285
 30
0.0
 11
90.8265
 21
48.9285
 31
0.0
  0
LINE
  8
0
 62
     153
 10
90.8265
 20
48.9285
 30
0.0
 11
97.7815
 21
48.9285
 31
0.0
  0
LINE
  8
0
 62
     153
 10
97.7815
 20
48.9285
 30
0.0
 11
97.9551
 21
48.9285
 31
0.0
  0
LINE
  8
0
 62
     153
 10
97.9551
 20
48.9285
 30
0.0
 11
98.48
 21
48.7881
 31
0.0
  0
LINE
  8
0
 62
     153
 10
98.48
 20
48.7881
 30
0.0
 11
99.0505
 21
48.4022
 31
0.0
  0
LINE
  8
0
 62
     153
 10
99.0505
 20
48.4022
 30
0.0
 11
99.435
 21
47.8317
 31
0.0
  0
LINE
  8
0
 62
     153
 10
99.435
 20
47.8317
 30
0.0
 11
99.5772
 21
47.3068
 31
0.0
  0
LINE
  8
0
 62
     153
 10
99.5772
 20
47.3068
 30
0.0
 11
99.5772
 21
47.1304
 31
0.0
  0
LINE
  8
0
 62
     254
 10
99.5772
 20
41.6003
 30
0.0
 11
99.5772
 21
41.4267
 31
0.0
  0
LINE
  8
0
 62
     254
 10
99.5772
 20
41.4267
 30
0.0
 11
99.435
 21
40.9014
 31
0.0
  0
LINE
  8
0
 62
     254
 10
99.435
 20
40.9014
 30
0.0
 11
99.0505
 21
40.3296
 31
0.0
  0
LINE
  8
0
 62
     254
 10
99.0505
 20
40.3296
 30
0.0
 11
98.48
 21
39.944
 31
0.0
  0
LINE
  8
0
 62
     254
 10
98.48
 20
39.944
 30
0.0
 11
97.9551
 21
39.8018
 31
0.0
  0
LINE
  8
0
 62
     254
 10
97.9551
 20
39.8018
 30
0.0
 11
97.7815
 21
39.8018
 31
0.0
  0
LINE
  8
0
 62
     254
 10
97.7815
 20
39.8018
 30
0.0
 11
90.8265
 21
39.8018
 31
0.0
  0
LINE
  8
0
 62
     254
 10
90.8265
 20
39.8018
 30
0.0
 11
90.6515
 21
39.8018
 31
0.0
  0
LINE
  8
0
 62
     254
 10
90.6515
 20
39.8018
 30
0.0
 11
90.1266
 21
39.944
 31
0.0
  0
LINE
  8
0
 62
     254
 10
90.1266
 20
39.944
 30
0.0
 11
89.5544
 21
40.3296
 31
0.0
  0
LINE
  8
0
 62
     254
 10
89.5544
 20
40.3296
 30
0.0
 11
89.1688
 21
40.9014
 31
0.0
  0
LINE
  8
0
 62
     254
 10
89.1688
 20
40.9014
 30
0.0
 11
89.0281
 21
41.4267
 31
0.0
  0
LINE
  8
0
 62
     254
 10
89.0281
 20
41.4267
 30
0.0
 11
89.0281
 21
41.6003
 31
0.0
  0
LINE
  8
0
 62
     254
 10
89.0281
 20
41.6003
 30
0.0
 11
89.0281
 21
41.7766
 31
0.0
  0
LINE
  8
0
 62
     254
 10
89.0281
 20
41.7766
 30
0.0
 11
89.1688
 21
42.3016
 31
0.0
  0
LINE
  8
0
 62
     254
 10
89.1688
 20
42.3016
 30
0.0
 11
89.5544
 21
42.872
 31
0.0
  0
LINE
  8
0
 62
     254
 10
89.5544
 20
42.872
 30
0.0
 11
90.1266
 21
43.258
 31
0.0
  0
LINE
  8
0
 62
     254
 10
90.1266
 20
43.258
 30
0.0
 11
90.6515
 21
43.3987
 31
0.0
  0
LINE
  8
0
 62
     254
 10
90.6515
 20
43.3987
 30
0.0
 11
90.8265
 21
43.3987
 31
0.0
  0
LINE
  8
0
 62
     254
 10
90.8265
 20
43.3987
 30
0.0
 11
97.7815
 21
43.3987
 31
0.0
  0
LINE
  8
0
 62
     254
 10
97.7815
 20
43.3987
 30
0.0
 11
97.9551
 21
43.3987
 31
0.0
  0
LINE
  8
0
 62
     254
 10
97.9551
 20
43.3987
 30
0.0
 11
98.48
 21
43.2566
 31
0.0
  0
LINE
  8
0
 62
     254
 10
98.48
 20
43.2566
 30
0.0
 11
99.0505
 21
42.872
 31
0.0
  0
LINE
  8
0
 62
     254
 10
99.0505
 20
42.872
 30
0.0
 11
99.435
 21
42.3002
 31
0.0
  0
LINE
  8
0
 62
     254
 10
99.435
 20
42.3002
 30
0.0
 11
99.5772
 21
41.7752
 31
0.0
  0
LINE
  8
0
 62
     254
 10
99.5772
 20
41.7752
 30
0.0
 11
99.5772
 21
41.6003
 31
0.0
  0
LINE
  8
0
 62
     154
 10
89.3286
 20
36.5305
 30
0.0
 11
99.3359
 21
36.5305
 31
0.0
  0
LINE
  8
0
 62
     154
 10
99.3359
 20
36.5305
 30
0.0
 11
99.3359
 21
16.5999
 31
0.0
  0
LINE
  8
0
 62
     154
 10
99.3359
 20
16.5999
 30
0.0
 11
89.3286
 21
16.5999
 31
0.0
  0
LINE
  8
0
 62
     154
 10
89.3286
 20
16.5999
 30
0.0
 11
89.3286
 21
36.5305
 31
0.0
  0
LINE
  8
0
 62
     154
 10
81.4433
 20
19.2994
 30
0.0
 11
77.3314
 21
25.2622
 31
0.0
  0
LINE
  8
0
 62
     154
 10
77.3314
 20
25.2622
 30
0.0
 11
77.1811
 21
25.5034
 31
0.0
  0
LINE
  8
0
 62
     154
 10
77.1811
 20
25.5034
 30
0.0
 11
76.7898
 21
26.2613
 31
0.0
  0
LINE
  8
0
 62
     154
 10
76.7898
 20
26.2613
 30
0.0
 11
76.5143
 21
27.2287
 31
0.0
  0
LINE
  8
0
 62
     154
 10
76.5143
 20
27.2287
 30
0.0
 11
76.6632
 21
28.0954
 31
0.0
  0
LINE
  8
0
 62
     154
 10
76.6632
 20
28.0954
 30
0.0
 11
77.1853
 21
28.677
 31
0.0
  0
LINE
  8
0
 62
     154
 10
77.1853
 20
28.677
 30
0.0
 11
77.4016
 21
28.7941
 31
0.0
  0
LINE
  8
0
 62
     154
 10
77.4016
 20
28.7941
 30
0.0
 11
77.4016
 21
28.7955
 31
0.0
  0
LINE
  8
0
 62
     154
 10
77.4016
 20
28.7955
 30
0.0
 11
78.0274
 21
29.0408
 31
0.0
  0
LINE
  8
0
 62
     154
 10
78.0274
 20
29.0408
 30
0.0
 11
79.8103
 21
30.0247
 31
0.0
  0
LINE
  8
0
 62
     154
 10
79.8103
 20
30.0247
 30
0.0
 11
81.6709
 21
31.597
 31
0.0
  0
LINE
  8
0
 62
     154
 10
81.6709
 20
31.597
 30
0.0
 11
82.8696
 21
33.4422
 31
0.0
  0
LINE
  8
0
 62
     154
 10
82.8696
 20
33.4422
 30
0.0
 11
83.294
 21
34.9801
 31
0.0
  0
LINE
  8
0
 62
     154
 10
83.294
 20
34.9801
 30
0.0
 11
83.294
 21
35.4912
 31
0.0
  0
LINE
  8
0
 62
     154
 10
83.294
 20
35.4912
 30
0.0
 11
83.294
 21
35.8881
 31
0.0
  0
LINE
  8
0
 62
     154
 10
83.294
 20
35.8881
 30
0.0
 11
83.0432
 21
37.0762
 31
0.0
  0
LINE
  8
0
 62
     154
 10
83.0432
 20
37.0762
 30
0.0
 11
82.3281
 21
38.5547
 31
0.0
  0
LINE
  8
0
 62
     154
 10
82.3281
 20
38.5547
 30
0.0
 11
81.1953
 21
39.8971
 31
0.0
  0
LINE
  8
0
 62
     154
 10
81.1953
 20
39.8971
 30
0.0
 11
79.6946
 21
41.0683
 31
0.0
  0
LINE
  8
0
 62
     154
 10
79.6946
 20
41.0683
 30
0.0
 11
77.8771
 21
42.037
 31
0.0
  0
LINE
  8
0
 62
     154
 10
77.8771
 20
42.037
 30
0.0
 11
75.7908
 21
42.7701
 31
0.0
  0
LINE
  8
0
 62
     154
 10
75.7908
 20
42.7701
 30
0.0
 11
73.4854
 21
43.2333
 31
0.0
  0
LINE
  8
0
 62
     154
 10
73.4854
 20
43.2333
 30
0.0
 11
71.6291
 21
43.3945
 31
0.0
  0
LINE
  8
0
 62
     154
 10
71.6291
 20
43.3945
 30
0.0
 11
71.0103
 21
43.3945
 31
0.0
  0
LINE
  8
0
 62
     154
 10
71.0103
 20
43.3945
 30
0.0
 11
50.4843
 21
43.3945
 31
0.0
  0
LINE
  8
0
 62
     154
 10
50.4843
 20
43.3945
 30
0.0
 11
50.4843
 21
16.6095
 31
0.0
  0
LINE
  8
0
 62
     154
 10
50.4843
 20
16.6095
 30
0.0
 11
60.4876
 21
16.6095
 31
0.0
  0
LINE
  8
0
 62
     154
 10
60.4876
 20
16.6095
 30
0.0
 11
60.4876
 21
39.7937
 31
0.0
  0
LINE
  8
0
 62
     154
 10
60.4876
 20
39.7937
 30
0.0
 11
60.4943
 21
39.7923
 31
0.0
  0
LINE
  8
0
 62
     154
 10
60.4943
 20
39.7923
 30
0.0
 11
60.4943
 21
39.7923
 31
0.0
  0
LINE
  8
0
 62
     154
 10
60.4943
 20
39.7923
 30
0.0
 11
61.2606
 21
39.7923
 31
0.0
  0
LINE
  8
0
 62
     154
 10
61.2606
 20
39.7923
 30
0.0
 11
63.1059
 21
39.7923
 31
0.0
  0
LINE
  8
0
 62
     154
 10
63.1059
 20
39.7923
 30
0.0
 11
65.345
 21
39.7923
 31
0.0
  0
LINE
  8
0
 62
     154
 10
65.345
 20
39.7923
 30
0.0
 11
66.8087
 21
39.7923
 31
0.0
  0
LINE
  8
0
 62
     154
 10
66.8087
 20
39.7923
 30
0.0
 11
67.2966
 21
39.7923
 31
0.0
  0
LINE
  8
0
 62
     154
 10
67.2966
 20
39.7923
 30
0.0
 11
67.9856
 21
39.7923
 31
0.0
  0
LINE
  8
0
 62
     154
 10
67.9856
 20
39.7923
 30
0.0
 11
70.0539
 21
39.4367
 31
0.0
  0
LINE
  8
0
 62
     154
 10
70.0539
 20
39.4367
 30
0.0
 11
72.3071
 21
38.4665
 31
0.0
  0
LINE
  8
0
 62
     154
 10
72.3071
 20
38.4665
 30
0.0
 11
73.8258
 21
37.0279
 31
0.0
  0
LINE
  8
0
 62
     154
 10
73.8258
 20
37.0279
 30
0.0
 11
74.3839
 21
35.705
 31
0.0
  0
LINE
  8
0
 62
     154
 10
74.3839
 20
35.705
 30
0.0
 11
74.3839
 21
35.264
 31
0.0
  0
LINE
  8
0
 62
     154
 10
74.3839
 20
35.264
 30
0.0
 11
74.3839
 21
35.0242
 31
0.0
  0
LINE
  8
0
 62
     154
 10
74.3839
 20
35.0242
 30
0.0
 11
74.2199
 21
34.3021
 31
0.0
  0
LINE
  8
0
 62
     154
 10
74.2199
 20
34.3021
 30
0.0
 11
73.8572
 21
33.5525
 31
0.0
  0
LINE
  8
0
 62
     154
 10
73.8572
 20
33.5525
 30
0.0
 11
73.7581
 21
33.4105
 31
0.0
  0
LINE
  8
0
 62
     154
 10
73.7581
 20
33.4105
 30
0.0
 11
73.6727
 21
33.2769
 31
0.0
  0
LINE
  8
0
 62
     154
 10
73.6727
 20
33.2769
 30
0.0
 11
73.0885
 21
32.5851
 31
0.0
  0
LINE
  8
0
 62
     154
 10
73.0885
 20
32.5851
 30
0.0
 11
72.4352
 21
31.936
 31
0.0
  0
LINE
  8
0
 62
     154
 10
72.4352
 20
31.936
 30
0.0
 11
72.3152
 21
31.8217
 31
0.0
  0
LINE
  8
0
 62
     154
 10
72.3152
 20
31.8217
 30
0.0
 11
72.0369
 21
31.5584
 31
0.0
  0
LINE
  8
0
 62
     154
 10
72.0369
 20
31.5584
 30
0.0
 11
71.0516
 21
30.9232
 31
0.0
  0
LINE
  8
0
 62
     154
 10
71.0516
 20
30.9232
 30
0.0
 11
69.5565
 21
30.1887
 31
0.0
  0
LINE
  8
0
 62
     154
 10
69.5565
 20
30.1887
 30
0.0
 11
68.1715
 21
29.6182
 31
0.0
  0
LINE
  8
0
 62
     154
 10
68.1715
 20
29.6182
 30
0.0
 11
67.4342
 21
29.3178
 31
0.0
  0
LINE
  8
0
 62
     154
 10
67.4342
 20
29.3178
 30
0.0
 11
67.2359
 21
29.2089
 31
0.0
  0
LINE
  8
0
 62
     154
 10
67.2359
 20
29.2089
 30
0.0
 11
67.0126
 21
29.0876
 31
0.0
  0
LINE
  8
0
 62
     154
 10
67.0126
 20
29.0876
 30
0.0
 11
66.4711
 21
28.4854
 31
0.0
  0
LINE
  8
0
 62
     154
 10
66.4711
 20
28.4854
 30
0.0
 11
66.3166
 21
27.5883
 31
0.0
  0
LINE
  8
0
 62
     154
 10
66.3166
 20
27.5883
 30
0.0
 11
66.6034
 21
26.5865
 31
0.0
  0
LINE
  8
0
 62
     154
 10
66.6034
 20
26.5865
 30
0.0
 11
67.007
 21
25.801
 31
0.0
  0
LINE
  8
0
 62
     154
 10
67.007
 20
25.801
 30
0.0
 11
67.1629
 21
25.5516
 31
0.0
  0
LINE
  8
0
 62
     154
 10
67.1629
 20
25.5516
 30
0.0
 11
73.3697
 21
16.6095
 31
0.0
  0
LINE
  8
0
 62
     154
 10
73.3697
 20
16.6095
 30
0.0
 11
83.3741
 21
16.6095
 31
0.0
  0
LINE
  8
0
 62
     154
 10
83.3741
 20
16.6095
 30
0.0
 11
81.4419
 21
19.2994
 31
0.0
  0
ENDSEC
  0
EOF
